<?xml version="1.0" standalone="no"?>
<!DOCTYPE svg PUBLIC "-//W3C//DTD SVG 20010904//EN"
 "http://www.w3.org/TR/2001/REC-SVG-20010904/DTD/svg10.dtd">
<svg version="1.0" xmlns="http://www.w3.org/2000/svg"
 width="486.000000pt" height="486.000000pt" viewBox="0 0 486.000000 486.000000"
 preserveAspectRatio="xMidYMid meet">
<metadata>
Created by potrace 1.11, written by Peter Selinger 2001-2013
</metadata>
<g transform="translate(0.000000,486.000000) scale(0.100000,-0.100000)"
fill="#000000" stroke="none">
<path d="M0 2430 l0 -2430 2430 0 2430 0 -2 2428 -3 2427 -2427 3 -2428 2 0
-2430z m2611 1814 c411 -71 748 -364 872 -759 48 -152 48 -173 45 -1105 l-4
-875 -27 -94 c-99 -338 -326 -598 -639 -731 -168 -71 -364 -101 -539 -82 -260
29 -472 128 -659 308 -176 170 -283 372 -325 618 -22 129 -22 1665 0 1801 99
611 671 1023 1276 919z"/>
<path d="M2282 4210 c-248 -35 -507 -177 -665 -366 -110 -131 -194 -298 -233
-464 -16 -68 -18 -153 -21 -895 -5 -968 -2 -999 87 -1207 262 -611 1015 -832
1572 -462 206 138 362 354 435 604 l27 95 4 860 c2 602 0 884 -8 940 -61 429
-401 788 -835 881 -85 19 -277 26 -363 14z m306 -276 c384 -79 648 -385 678
-786 7 -85 6 -91 -10 -85 -10 4 -78 32 -152 63 l-134 56 -688 -693 -687 -692
-5 664 c-3 365 -2 699 2 742 33 350 312 655 668 731 89 19 235 19 328 0z m673
-1604 c3 -813 6 -775 -81 -955 -246 -510 -916 -632 -1327 -241 -161 152 -249
340 -260 555 -5 87 -4 103 8 99 8 -3 74 -30 147 -59 l133 -53 687 687 c377
377 687 685 688 684 1 -1 3 -324 5 -717z"/>
<path d="M2333 3649 c-210 -35 -389 -204 -439 -415 -22 -95 -15 -227 18 -315
29 -78 103 -187 154 -225 l35 -27 39 39 c216 219 710 741 710 750 0 24 -107
108 -185 145 -112 54 -212 68 -332 48z"/>
<path d="M2490 1913 c-140 -146 -309 -322 -375 -391 l-119 -125 57 -54 c64
-59 142 -102 232 -128 89 -26 258 -17 345 19 317 129 444 522 262 802 -41 62
-119 144 -136 144 -6 -1 -126 -120 -266 -267z"/>
</g>
</svg>
