<svg xmlns="http://www.w3.org/2000/svg" xmlns:xlink="http://www.w3.org/1999/xlink" viewBox="0 0 28.85 28.83">
  <defs>
    <style>
      .cls-1 {
        fill: url(#linear-gradient);
      }
    </style>
    <linearGradient id="linear-gradient" x1="14.43" y1="28.83" x2="14.43" gradientUnits="userSpaceOnUse">
      <stop offset="0" stop-color="#825fa3"/>
      <stop offset="0.21" stop-color="#7e5fa3"/>
      <stop offset="0.43" stop-color="#7161a5"/>
      <stop offset="0.66" stop-color="#5b63a7"/>
      <stop offset="0.89" stop-color="#3e65aa"/>
      <stop offset="1" stop-color="#2d67ac"/>
    </linearGradient>
  </defs>
  <title>linkedin</title>
  <g id="Layer_2" data-name="Layer 2">
    <g id="Layer_1-2" data-name="Layer 1">
      <g id="lfSqyq">
        <path class="cls-1" d="M14.43,28.83H2.23A2.12,2.12,0,0,1,.07,27.22a3.2,3.2,0,0,1-.07-.7V2.29A2.11,2.11,0,0,1,2.29,0H26.58a2.1,2.1,0,0,1,2.19,1.56,2.89,2.89,0,0,1,.08.72V26.52a2.11,2.11,0,0,1-1.63,2.24,2.81,2.81,0,0,1-.65.07ZM24.6,24.54v-.22c0-2.59,0-5.19,0-7.78a14,14,0,0,0-.3-2.66,4,4,0,0,0-2-2.8,5.46,5.46,0,0,0-2.47-.6,4.68,4.68,0,0,0-4,1.64c-.15.18-.27.37-.46.63V10.82H11.26V24.53H15.5v-.32c0-2.15,0-4.3,0-6.45a10.15,10.15,0,0,1,.12-1.46,2.41,2.41,0,0,1,1-1.68,2.58,2.58,0,0,1,1.67-.39,1.8,1.8,0,0,1,1.84,1.45,7,7,0,0,1,.22,1.65c0,2.29,0,4.58,0,6.87v.34Zm-16.07,0V10.82H4.31V24.54ZM6.42,8.93A2.49,2.49,0,1,0,4,6.44,2.47,2.47,0,0,0,6.42,8.93Z"/>
      </g>
    </g>
  </g>
</svg>
