<svg xmlns="http://www.w3.org/2000/svg" xmlns:xlink="http://www.w3.org/1999/xlink" viewBox="0 0 28.58 23.3">
  <defs>
    <style>
      .cls-1 {
        fill: url(#linear-gradient);
      }
    </style>
    <linearGradient id="linear-gradient" x1="14.29" y1="23.3" x2="14.29" gradientUnits="userSpaceOnUse">
      <stop offset="0" stop-color="#825fa3"/>
      <stop offset="0.21" stop-color="#7e5fa3"/>
      <stop offset="0.43" stop-color="#7161a5"/>
      <stop offset="0.66" stop-color="#5b63a7"/>
      <stop offset="0.89" stop-color="#3e65aa"/>
      <stop offset="1" stop-color="#2d67ac"/>
    </linearGradient>
  </defs>
  <title>twitter</title>
  <g id="Layer_2" data-name="Layer 2">
    <g id="Layer_1-2" data-name="Layer 1">
      <g id="ev7JUU">
        <path class="cls-1" d="M8.63,18.24a6,6,0,0,1-4-1.78,5.8,5.8,0,0,1-1.41-2.33A5.58,5.58,0,0,0,5.81,14a5.88,5.88,0,0,1-4-3.06A6,6,0,0,1,1.1,8.19a6,6,0,0,0,2.63.73A6,6,0,0,1,1.16,4,5.72,5.72,0,0,1,2,1.1a16.84,16.84,0,0,0,12.1,6.14c0-.29-.09-.54-.12-.8a5.43,5.43,0,0,1,0-.57,5.63,5.63,0,0,1,.67-2.7A5.8,5.8,0,0,1,18.69.11,5.51,5.51,0,0,1,20.26,0,5.9,5.9,0,0,1,24,1.78a.17.17,0,0,0,.19.06A12,12,0,0,0,27.71.5l.12-.06a6,6,0,0,1-2.54,3.23A9.36,9.36,0,0,0,27,3.35c.54-.16,1.08-.36,1.63-.54l-.06.1a11.92,11.92,0,0,1-2.75,2.83.18.18,0,0,0-.08.17c0,.41,0,.81,0,1.22s-.05.74-.09,1.1-.07.66-.12,1-.14.64-.2.95a12.44,12.44,0,0,1-.53,1.9,17.34,17.34,0,0,1-3,5.4A15.87,15.87,0,0,1,18,20.74a15.69,15.69,0,0,1-5,2.1c-.52.12-1,.21-1.58.3-.33.05-.67.07-1,.09q-.78,0-1.56.06a6.32,6.32,0,0,1-.87,0c-.44,0-.88-.08-1.32-.14a15.56,15.56,0,0,1-3-.7A16.8,16.8,0,0,1,.07,20.72l-.07,0A11.87,11.87,0,0,0,8.63,18.24Z"/>
      </g>
    </g>
  </g>
</svg>
