<svg xmlns="http://www.w3.org/2000/svg" viewBox="0 0 57.4 95.14"><defs><style>.cls-1,.cls-2,.cls-3{fill:#fff;}.cls-1{opacity:0.5;}.cls-3,.cls-4{stroke:#fff;stroke-miterlimit:10;}.cls-3{stroke-width:4.54px;opacity:0.4;}.cls-4{fill:none;stroke-width:1.02px;}</style></defs><title>logo</title><g id="Layer_2" data-name="Layer 2"><g id="Layer_1-2" data-name="Layer 1"><path class="cls-1" d="M8.55,73l1,2.64A21.74,21.74,0,0,0,50.44,65.29V31.1ZM43,65.29a14.35,14.35,0,0,1-25.5,9L37.3,53.8A14.4,14.4,0,0,1,43,65.29Z"/><path class="cls-1" d="M47.81,19.49A21.74,21.74,0,0,0,7,29.85V64.08L48.84,22Zm-19.11-4a14.26,14.26,0,0,1,11.16,5.32L20.11,41.35A14.35,14.35,0,0,1,28.7,15.51Z"/><path class="cls-2" d="M28.7,9.16A20.7,20.7,0,0,1,46.87,19.94l.49,1.2L42.82,23.6l-.59-1.08A15.39,15.39,0,1,0,18.58,41.44L14.9,45.27A20.7,20.7,0,0,1,28.7,9.16m0-1A21.73,21.73,0,0,0,15,46.7l5.15-5.35A14.35,14.35,0,1,1,41.32,23l1.08,2,6.27-3.4-.86-2.11A21.74,21.74,0,0,0,28.7,8.12Z"/><path class="cls-2" d="M42.53,49.89c.34.3.67.62,1,.94a20.7,20.7,0,1,1-33,24.38L10,74l4.56-2.48.59,1.08A15.39,15.39,0,1,0,38.83,53.71l3.7-3.82m-.07-1.42L37.3,53.8A14.35,14.35,0,1,1,16.08,72.13l-1.08-2L8.7,73.56l.89,2.1A21.74,21.74,0,1,0,44.25,50.1a22,22,0,0,0-1.79-1.64Z"/><path class="cls-2" d="M7,64.08v1.21a21.74,21.74,0,1,0,43.47,0L49.68,63H43v2.27A14.37,14.37,0,0,1,28.7,79.64,14.17,14.17,0,0,1,14.46,67.1Z"/><path class="cls-2" d="M42.93,28A14,14,0,0,0,28.7,15.51,14.37,14.37,0,0,0,14.35,29.85v2.27H7.82L7,29.85a21.74,21.74,0,1,1,43.47,0V31.1Z"/><path class="cls-3" d="M10.66,29.85"/><path class="cls-3" d="M46.74,65.29"/><rect class="cls-4" x="0.51" y="0.51" width="56.38" height="94.12" rx="28.19" ry="28.19"/></g></g></svg>