<svg xmlns="http://www.w3.org/2000/svg" width="43.69" height="53.14" viewBox="-2 0 46 53.14">
  <defs>
    <style>
      .cls-1 {
        fill: none;
        stroke: #fff;
        stroke-linejoin: round;
        stroke-width: 1.04px;
      }
    </style>
  </defs>
  <title>logged_in</title>
  <g id="Layer_2" data-name="Layer 2">
    <g id="Layer_1-2" data-name="Layer 1">
      <path class="cls-1" d="M25.25,52.62.52,52.31c.54-3.91,3.55-8.22,5.75-10.93a9.5,9.5,0,0,0,.65-11.3l-.1-.15c-.17-.23-4.84-6.43-5-10.07C1.79,19.75.59,13.75,6.67,7c2.95-3.3,7-6.36,16.4-6.43a18.64,18.64,0,0,1,14,5.61,14.59,14.59,0,0,1,4.24,12,7,7,0,0,1-.57,2.05,2.92,2.92,0,0,0-.21,3c1.82,3.22,2.72,5.21,2.64,5.91a2,2,0,0,1-.6,1.33h0a3,3,0,0,1-2,.85,1.6,1.6,0,0,0,0,.34l0,1.85a1.74,1.74,0,0,1-.88,1.32,2.6,2.6,0,0,1-.58,2.33c-.37.5-.58.78-.4,1.42s.43,2.79-.73,3.61c-.41.39-1.83,1.34-5.58.86l-.56-.07h-.05A4.29,4.29,0,0,0,27.16,46Z"/>
    </g>
  </g>
</svg>
