<svg xmlns="http://www.w3.org/2000/svg" viewBox="0 0 60.08 60.08">
  <defs>
    <style>
      .cls-1 {
        fill: #fff;
      }

      .cls-2 {
        fill: none;
        stroke: #5e66af;
        stroke-linecap: round;
        stroke-linejoin: round;
      }
    </style>
  </defs>
  <title>questionmark-button</title>
  <g id="Layer_2" data-name="Layer 2">
    <g id="Layer_2-2" data-name="Layer 2">
      <g>
        <circle class="cls-1" cx="30.04" cy="30.04" r="30.04"/>
        <path class="cls-2" d="M27.83,36.29c0-3.38.71-4.84,3.87-7.51A14.32,14.32,0,0,0,34,26.49a5.7,5.7,0,0,0,1-3c0-2.46-1.88-4.13-4.55-4.13a4.83,4.83,0,0,0-4.21,2.13,8.11,8.11,0,0,0-1.33,3.38l-4.13-.71c1.17-5.72,4.3-8.43,9.76-8.43s8.87,3.05,8.87,8a7.77,7.77,0,0,1-2.16,5.47,25.56,25.56,0,0,1-3.3,3c-1.87,1.59-2.66,3-2.62,4.59V37.8h-3.5Zm-.34,4.93h4.26v4.71H27.49Z"/>
      </g>
    </g>
  </g>
</svg>
