<svg xmlns="http://www.w3.org/2000/svg" viewBox="0 0 90.35 109.81">
  <defs>
    <style>
      .cls-1 {
        opacity: 0.4;
      }

      .cls-2 {
        fill: #5280bd;
      }
    </style>
  </defs>
  <title>user-count</title>
  <g id="Layer_2" data-name="Layer 2">
    <g id="Layer_1-2" data-name="Layer 1">
      <g class="cls-1">
        <path class="cls-2" d="M37.64,109.81l-.08-.62-4-13.93a9,9,0,0,0-9.9-6.44l-.11,0L22.38,89c-7.87,1-10.85-1-11.72-1.8-2.41-1.72-1.8-6.1-1.52-7.58s-.06-1.91-.84-3c-1.6-2.24-1.53-3.91-1.22-4.89A3.7,3.7,0,0,1,5.24,69l.07-3.87a4.13,4.13,0,0,0,.05-.71,6.24,6.24,0,0,1-4.1-1.8A4.21,4.21,0,0,1,0,59.83c-.17-1.46,1.7-5.64,5.53-12.39C6.91,44.82,6,43,5.1,41.1a14.27,14.27,0,0,1-1.19-4.29c-.91-12.9,4.23-20.15,8.87-25C22.08,1.93,33.74,0,42.14,0,61.86.14,70.31,6.55,76.49,13.47,89.24,27.72,86.73,40.3,86.66,40.53c-.33,7.62-10.12,20.62-10.48,21.11L76,62a19.92,19.92,0,0,0,1.36,23.68c4.61,5.67,11.87,15.67,13,23.87l-.06.31" transform="translate(0)"/>
      </g>
    </g>
  </g>
</svg>
