<svg xmlns="http://www.w3.org/2000/svg" viewBox="0 0 216.47 87.15">
  <defs>
    <style>
      .cls-1 {
        opacity: 0.4;
      }

      .cls-2 {
        fill: #3f6394;
      }

      .cls-3, .cls-4 {
        fill: #5280bd;
      }

      .cls-4 {
        stroke: #fff;
        stroke-miterlimit: 10;
        stroke-width: 2px;
      }

      .cls-5 {
        fill: #fff;
      }
    </style>
  </defs>
  <title>up3</title>
  <g id="Layer_2" data-name="Layer 2">
    <g id="Layer_1-2" data-name="Layer 1">
      <g class="cls-1">
        <path class="cls-2" d="M176.24,0H47.71C25.49,0,.82,19.83.82,42L.43,43.62c0,22.22,25.06,36.84,47.28,36.84l123.14,6.45c22.22,0,45.62-24.46,45.62-46.68h0A40.23,40.23,0,0,0,176.24,0Z"/>
        <path class="cls-3" d="M168.76,6.69H40.23A40.23,40.23,0,0,0,0,46.92H0A40.23,40.23,0,0,0,40.23,87.15H168.76A40.23,40.23,0,0,0,209,46.92h0A40.23,40.23,0,0,0,168.76,6.69Z"/>
        <path class="cls-4" d="M166.52,11.85h-124c-19.71,0-35.69,15.7-35.69,35.07h0C6.78,66.29,22.76,82,42.47,82H166.52c19.72,0,35.7-15.7,35.7-35.07h0C202.22,27.55,186.24,11.85,166.52,11.85Z"/>
        <g>
          <path class="cls-5" d="M73.52,67.71l-.1,0c-.67-.29-1.33-.61-2-.88a25.22,25.22,0,0,0-4.61-1.29c-.67-.12-1.36-.21-2-.27s-1.47-.12-2.21-.15c-.37,0-.74,0-1.11,0a15.57,15.57,0,0,0-2.16.14l-2.43.4c-.78.12-1.56.25-2.35.35-.57.07-1.15.12-1.73.17s-1.23.09-1.84.12l-1.37.07-1.69.07-1.07,0-1.41,0-2.1,0H39.57a3.5,3.5,0,0,1-2.69-1.17A3.14,3.14,0,0,1,36,63.5a2.64,2.64,0,0,1,.32-1.56c.2-.37.45-.71.67-1.06,0,0,0,0-.09,0a4.75,4.75,0,0,1-1.87-1,2.82,2.82,0,0,1-.9-2.48,4.74,4.74,0,0,1,1-2.3c.18-.25.38-.47.58-.71l-.16-.07a5.36,5.36,0,0,1-2-1.31,3.09,3.09,0,0,1-.83-2.53,3.78,3.78,0,0,1,1.05-2.14c.26-.28.57-.52.85-.77l-.1-.05a4.46,4.46,0,0,1-1.45-1,3.66,3.66,0,0,1-1-3,2.63,2.63,0,0,1,.54-1.34,4.38,4.38,0,0,1,3.23-1.56l.92-.07,1.46-.13c.44,0,.89-.08,1.33-.15.77-.12,1.53-.27,2.3-.39s1.34-.22,2-.3a14.73,14.73,0,0,1,1.62-.13c.67,0,1.33,0,2,0,.13,0,.19,0,.23-.13.17-.39.36-.76.52-1.15a5.53,5.53,0,0,0,.34-2.76A6.18,6.18,0,0,0,48,33.53c-.38-.81-.78-1.61-1.16-2.42a9,9,0,0,1-.83-3,7.6,7.6,0,0,1,0-1.65,5.91,5.91,0,0,1,1.85-3.78,1.33,1.33,0,0,1,.91-.41,1.47,1.47,0,0,1,1.44.95c.62,1.47,1.24,3,2,4.37A6.35,6.35,0,0,0,54,29.85c.44.33.87.68,1.31,1a10.11,10.11,0,0,1,3.74,5.45,20,20,0,0,0,1.51,3.86,7.8,7.8,0,0,0,2,2.56A11.38,11.38,0,0,0,64.76,44a58.25,58.25,0,0,0,7.56,2.83l1.2.37Z"/>
          <path class="cls-5" d="M126.5,68.3l-.1,0c-.67-.3-1.33-.62-2-.89a24.63,24.63,0,0,0-4.61-1.28c-.68-.13-1.36-.21-2-.28s-1.47-.11-2.21-.15c-.37,0-.74,0-1.11,0a15.67,15.67,0,0,0-2.16.14l-2.43.4c-.78.12-1.56.25-2.35.35-.57.07-1.15.12-1.73.16l-1.84.13-1.37.07-1.69.07-1.07,0-1.41,0c-.7,0-1.4,0-2.1,0l-3.71,0a3.55,3.55,0,0,1-2.7-1.17A3.17,3.17,0,0,1,89,64.08a2.63,2.63,0,0,1,.32-1.55c.2-.37.45-.71.68-1.07l-.09,0a4.73,4.73,0,0,1-1.87-1,2.77,2.77,0,0,1-.9-2.48,4.8,4.8,0,0,1,1-2.31c.18-.24.38-.47.58-.71l-.16-.07a5.3,5.3,0,0,1-2-1.3A3,3,0,0,1,85.77,51a3.7,3.7,0,0,1,1-2.14c.26-.28.57-.52.85-.78l-.09,0A4.39,4.39,0,0,1,86.11,47a3.63,3.63,0,0,1-1-2.94,2.69,2.69,0,0,1,.54-1.34,4.4,4.4,0,0,1,3.23-1.56c.31,0,.61,0,.92-.07L91.23,41c.45-.05.89-.08,1.34-.15.76-.12,1.53-.27,2.29-.4s1.34-.21,2-.3S98,40,98.51,40s1.32,0,2,0c.13,0,.18,0,.22-.14.18-.38.36-.75.52-1.14a5.43,5.43,0,0,0,.34-2.76,5.82,5.82,0,0,0-.57-1.83c-.38-.81-.78-1.61-1.16-2.42a9,9,0,0,1-.83-3,8.26,8.26,0,0,1,0-1.65,5.88,5.88,0,0,1,1.85-3.78,1.35,1.35,0,0,1,.91-.41,1.45,1.45,0,0,1,1.44.94c.62,1.48,1.24,3,2,4.38A6.32,6.32,0,0,0,107,30.44l1.3,1a10,10,0,0,1,3.74,5.44,20.44,20.44,0,0,0,1.51,3.87,7.76,7.76,0,0,0,2,2.55,11,11,0,0,0,2.18,1.25,58.11,58.11,0,0,0,7.55,2.83l1.21.37Z"/>
          <path class="cls-5" d="M178.91,67.71l-.1,0c-.67-.29-1.33-.61-2-.88a25.45,25.45,0,0,0-4.61-1.29c-.67-.12-1.36-.21-2-.27s-1.47-.12-2.21-.15c-.37,0-.74,0-1.11,0a15.57,15.57,0,0,0-2.16.14l-2.43.4c-.78.12-1.57.25-2.35.35-.58.07-1.16.12-1.73.17l-1.84.12-1.37.07-1.69.07-1.07,0-1.41,0-2.1,0H145a3.5,3.5,0,0,1-2.69-1.17,3.14,3.14,0,0,1-.85-1.84,2.64,2.64,0,0,1,.31-1.56c.2-.37.45-.71.68-1.06l-.09,0a4.75,4.75,0,0,1-1.87-1,2.79,2.79,0,0,1-.9-2.48,4.82,4.82,0,0,1,1-2.3c.19-.25.39-.47.59-.71l-.16-.07A5.36,5.36,0,0,1,139,53a3.09,3.09,0,0,1-.83-2.53,3.78,3.78,0,0,1,1-2.14,10.36,10.36,0,0,1,.85-.77l-.1-.05a4.46,4.46,0,0,1-1.45-1,3.66,3.66,0,0,1-1-3,2.55,2.55,0,0,1,.54-1.34,4.38,4.38,0,0,1,3.23-1.56l.92-.07,1.46-.13c.44,0,.89-.08,1.33-.15.77-.12,1.53-.27,2.3-.39s1.34-.22,2-.3a14.91,14.91,0,0,1,1.63-.13c.67,0,1.33,0,2,0a.21.21,0,0,0,.23-.13c.17-.39.36-.76.52-1.15a5.53,5.53,0,0,0,.34-2.76,6.18,6.18,0,0,0-.57-1.83c-.38-.81-.78-1.61-1.16-2.42a9,9,0,0,1-.83-3,8.28,8.28,0,0,1,0-1.65,6,6,0,0,1,1.85-3.78,1.37,1.37,0,0,1,.92-.41,1.48,1.48,0,0,1,1.44.95c.62,1.47,1.24,3,2,4.37a6.35,6.35,0,0,0,1.78,2.26c.44.33.87.68,1.31,1a10.11,10.11,0,0,1,3.74,5.45,20.57,20.57,0,0,0,1.5,3.86,8,8,0,0,0,2,2.56A11.38,11.38,0,0,0,170.15,44a57.71,57.71,0,0,0,7.56,2.83l1.2.37Z"/>
        </g>
      </g>
    </g>
  </g>
</svg>
