<svg xmlns="http://www.w3.org/2000/svg" viewBox="0 0 36.2 40.03">
  <defs>
    <style>
      .cls-1 {
        fill: #fff;
        stroke: #f17030;
        stroke-miterlimit: 10;
        stroke-width: 1.8px;
      }
    </style>
  </defs>
  <title>Asset 3</title>
  <g id="Layer_2" data-name="Layer 2">
    <g id="Layer_1-2" data-name="Layer 1">
      <path class="cls-1" d="M3.06,21.86c-.23.21-.49.41-.7.64a3.1,3.1,0,0,0-.87,1.78,2.54,2.54,0,0,0,.69,2.1,4.27,4.27,0,0,0,1.63,1.08l.13.06c-.16.2-.33.39-.48.59A4,4,0,0,0,2.63,30a2.29,2.29,0,0,0,.74,2.06,3.82,3.82,0,0,0,1.56.84L5,33c-.19.29-.4.58-.56.88a2.16,2.16,0,0,0-.27,1.29,2.68,2.68,0,0,0,.71,1.54,3,3,0,0,0,2.24,1l3.08,0,1.74,0,1.18,0,.88,0,1.4-.05,1.14-.06c.51,0,1-.06,1.53-.11s1-.07,1.44-.13l1.95-.29,2-.33a12.1,12.1,0,0,1,1.8-.12c.31,0,.61,0,.92,0,.61,0,1.22.06,1.83.12s1.14.13,1.7.23a20.35,20.35,0,0,1,3.83,1.07c.56.22,1.11.49,1.67.73l.08,0V21.56l-1-.3A49.17,49.17,0,0,1,28,18.91a9,9,0,0,1-1.81-1,6.36,6.36,0,0,1-1.66-2.12,16.69,16.69,0,0,1-1.25-3.21A8.32,8.32,0,0,0,20.2,8L19.12,7.2a5.43,5.43,0,0,1-1.48-1.88C17,4.14,16.52,2.91,16,1.69A1.21,1.21,0,0,0,14.81.9a1.16,1.16,0,0,0-.76.34,5,5,0,0,0-1.54,3.14,7.84,7.84,0,0,0,0,1.37,7.7,7.7,0,0,0,.69,2.49c.32.67.65,1.34,1,2a5,5,0,0,1,.48,1.52,4.49,4.49,0,0,1-.29,2.29c-.13.32-.28.63-.42.95a.19.19,0,0,1-.2.11c-.54,0-1.1,0-1.64,0a12.26,12.26,0,0,0-1.36.11c-.56.06-1.11.15-1.67.24s-1.27.23-1.91.33c-.36.06-.73.09-1.1.13L4.81,16c-.25,0-.51,0-.76.06a3.66,3.66,0,0,0-2.68,1.3A2.22,2.22,0,0,0,.92,18.5,3,3,0,0,0,1.77,21,3.74,3.74,0,0,0,3,21.82Z"/>
    </g>
  </g>
</svg>
