<svg xmlns="http://www.w3.org/2000/svg" viewBox="0 0 30.78 33.76"><defs><style>.cls-1{fill:#fefefe;}</style></defs><title>Asset 10</title><g id="Layer_2" data-name="Layer 2"><g id="Layer_1-2" data-name="Layer 1"><g id="iwhrpI"><path class="cls-1" d="M1.93,18.76c-.21.19-.44.37-.63.57a2.8,2.8,0,0,0-.78,1.59,2.27,2.27,0,0,0,.62,1.88,3.93,3.93,0,0,0,1.46,1l.12.05c-.15.18-.3.35-.43.53a3.58,3.58,0,0,0-.74,1.71,2.06,2.06,0,0,0,.67,1.84,3.46,3.46,0,0,0,1.39.76l.07,0c-.17.26-.36.52-.5.79a2,2,0,0,0-.24,1.16A2.34,2.34,0,0,0,3.56,32a2.63,2.63,0,0,0,2,.87H8.32l1.56,0,1,0,.8,0,1.25,0,1-.05,1.36-.1c.43,0,.86-.07,1.29-.12.58-.08,1.16-.17,1.74-.26l1.8-.3a11.39,11.39,0,0,1,1.61-.11c.27,0,.55,0,.82,0,.55,0,1.1.06,1.64.11s1,.11,1.52.21a18.46,18.46,0,0,1,3.43,1c.51.2,1,.44,1.49.66l.07,0V18.49l-.9-.27a43.83,43.83,0,0,1-5.61-2.11,8.11,8.11,0,0,1-1.61-.92,5.74,5.74,0,0,1-1.49-1.9,15,15,0,0,1-1.12-2.87,7.48,7.48,0,0,0-2.78-4l-1-.74A4.72,4.72,0,0,1,15,4C14.44,2.9,14,1.8,13.52.7A1.09,1.09,0,0,0,12.45,0a1,1,0,0,0-.68.3,4.41,4.41,0,0,0-1.38,2.81,6.21,6.21,0,0,0,0,1.23A6.77,6.77,0,0,0,11,6.57c.28.6.58,1.2.86,1.8a4.57,4.57,0,0,1,.42,1.36A4.05,4.05,0,0,1,12,11.78c-.12.29-.26.57-.38.85a.15.15,0,0,1-.17.1c-.49,0-1,0-1.48,0s-.81,0-1.21.1-1,.14-1.5.22l-1.71.29c-.33.05-.66.08-1,.11l-1.09.1-.68.05a3.27,3.27,0,0,0-2.4,1.16,2,2,0,0,0-.4,1,2.72,2.72,0,0,0,.76,2.19,3.21,3.21,0,0,0,1.08.78Z"/></g></g></g></svg>